<?xml version="1.0" standalone="no"?>
<!DOCTYPE svg PUBLIC "-//W3C//DTD SVG 20010904//EN"
 "http://www.w3.org/TR/2001/REC-SVG-20010904/DTD/svg10.dtd">
<svg version="1.0" xmlns="http://www.w3.org/2000/svg"
 width="1356.000000pt" height="224.000000pt" viewBox="0 0 1356.000000 224.000000"
 preserveAspectRatio="xMidYMid meet">
<metadata>
Created by potrace 1.13, written by Peter Selinger 2001-2015
</metadata>
<g transform="translate(0.000000,224.000000) scale(0.100000,-0.100000)"
fill="#000000" stroke="none">
<path d="M132 2033 c-180 -202 -181 -176 18 -434 159 -205 394 -504 434 -553
l24 -29 105 134 c58 74 177 226 264 339 87 113 182 235 211 272 29 37 52 73
52 79 0 7 -31 46 -68 88 -38 42 -81 92 -98 111 -16 19 -51 58 -78 87 l-49 53
-342 0 -342 0 -131 -147z m638 98 c0 -20 -28 -33 -49 -21 -32 16 -25 30 14 30
19 0 35 -4 35 -9z m-367 -26 c15 -13 27 -29 27 -35 0 -14 -155 -170 -169 -170
-9 0 -19 36 -36 130 -6 35 -6 35 57 67 76 38 85 39 121 8z m93 9 c-26 -14 -30
-14 -44 0 -15 15 -13 16 28 16 l45 -1 -29 -15z m167 -14 c49 -31 57 -49 32
-70 -12 -10 -15 -10 -15 2 0 28 -36 50 -77 46 -36 -3 -38 -5 -41 -38 -5 -62
-11 -66 -37 -27 -14 20 -25 40 -25 45 0 11 90 72 105 72 6 0 31 -14 58 -30z
m258 -2 l71 -32 -7 -35 c-4 -20 -10 -56 -14 -80 -3 -25 -11 -46 -16 -48 -6 -2
-26 13 -45 32 l-34 35 26 0 c37 0 58 10 58 26 0 11 -9 13 -39 8 -28 -4 -39 -2
-44 8 -10 28 9 41 47 34 40 -8 43 -5 20 18 -30 31 -104 9 -104 -31 0 -7 -4
-13 -10 -13 -13 0 -50 37 -50 50 0 12 50 59 62 60 4 0 40 -14 79 -32z m-276
-73 c0 -14 -8 -21 -27 -23 -24 -3 -28 0 -28 23 0 23 4 26 28 23 19 -2 27 -9
27 -23z m-206 -163 c-72 -1 -134 0 -138 3 -3 4 32 43 77 88 l83 81 56 -84 55
-85 -133 -3z m394 94 c42 -41 77 -79 77 -85 0 -7 -44 -11 -136 -11 -105 0
-134 3 -128 13 29 51 99 157 103 157 3 0 41 -33 84 -74z m-185 8 c6 -4 -31
-64 -39 -64 -10 0 -49 55 -49 68 0 9 78 5 88 -4z m-538 -54 c-21 -40 -39 -55
-60 -48 -6 2 9 26 32 54 49 57 59 55 28 -6z m1041 -22 c14 -20 16 -28 7 -28
-20 0 -32 11 -56 51 -47 78 -13 62 49 -23z m-944 13 l6 -41 -37 0 c-42 0 -44
8 -14 61 25 45 37 40 45 -20z m873 -36 c0 -3 -19 -5 -41 -5 l-42 0 7 42 c4 22
9 45 13 51 5 8 63 -73 63 -88z m-1003 -53 c15 -9 28 -62 16 -62 -13 0 -53 56
-46 64 8 8 15 7 30 -2z m144 -12 c11 -21 89 -305 89 -326 0 -9 -29 21 -64 66
-49 63 -70 101 -86 154 -11 39 -25 81 -30 93 -5 11 -6 24 -2 27 12 13 85 1 93
-14z m183 3 c10 -31 64 -278 62 -280 -1 -1 -45 62 -99 141 -53 79 -93 146 -90
150 4 3 32 6 64 6 46 0 59 -3 63 -17z m170 8 c3 -4 1 -35 -4 -67 -6 -32 -17
-106 -25 -163 -8 -57 -17 -106 -19 -108 -2 -3 -7 11 -11 29 -4 18 -17 78 -30
134 -13 55 -27 119 -31 142 l-7 42 61 0 c34 0 63 -4 66 -9z m182 1 c7 -5 1
-46 -19 -132 -40 -175 -49 -206 -53 -195 -9 24 -52 321 -47 328 5 9 105 9 119
-1z m181 -7 c-8 -20 -167 -257 -185 -275 -13 -12 -14 -12 -9 5 4 11 15 61 26
111 11 50 22 97 25 105 2 8 7 26 10 42 6 26 9 27 72 27 54 0 65 -3 61 -15z
m136 -18 c-5 -72 -45 -163 -109 -246 -35 -46 -64 -76 -64 -66 0 9 13 63 29
119 16 55 34 124 41 151 17 67 27 77 69 73 33 -3 36 -6 34 -31z m97 26 c0 -5
-11 -21 -25 -38 l-24 -30 -1 26 c0 14 5 30 12 37 13 13 38 16 38 5z m-545
-224 c8 -57 19 -133 25 -169 7 -50 6 -78 -5 -120 -8 -30 -19 -75 -25 -99 -6
-23 -14 -41 -16 -38 -3 3 -16 47 -29 99 -21 81 -23 103 -14 159 5 35 14 98 19
139 13 98 21 142 26 137 2 -2 11 -51 19 -108z m-216 -62 c91 -138 89 -134 116
-231 32 -115 37 -136 27 -136 -5 0 -44 44 -86 98 -52 67 -80 113 -90 147 -8
28 -26 93 -40 145 -15 52 -29 104 -33 115 -8 28 18 -5 106 -138z m487 106 c-4
-16 -24 -89 -63 -230 -9 -32 -32 -75 -61 -111 -26 -33 -60 -78 -77 -100 -16
-22 -33 -38 -36 -36 -4 2 6 54 22 115 26 103 35 121 116 245 80 123 112 161
99 117z"/>
<path d="M295 2068 c-9 -24 -2 -93 10 -93 14 0 19 85 6 98 -7 7 -12 5 -16 -5z"/>
<path d="M1515 2029 c-4 -6 2 -17 14 -25 21 -15 21 -20 21 -395 0 -368 -1
-380 -20 -399 -12 -12 -18 -25 -15 -30 8 -13 265 -13 265 0 0 6 -9 19 -20 30
-19 19 -20 33 -20 395 0 362 1 376 20 395 11 11 20 25 20 30 0 14 -257 13
-265 -1z"/>
<path d="M3077 1873 c-4 -3 -7 -48 -7 -98 0 -50 3 -95 7 -98 3 -4 16 2 28 13
20 19 33 20 124 18 l102 -3 -1 -245 c0 -200 -3 -247 -15 -260 -8 -9 -12 -20
-8 -23 10 -11 201 -8 208 3 3 6 -1 17 -9 26 -14 13 -16 51 -16 260 l0 244 109
0 c88 0 110 -3 115 -15 3 -8 12 -15 21 -15 12 0 15 16 15 95 0 79 -3 95 -15
95 -9 0 -18 -7 -21 -15 -5 -13 -48 -15 -297 -15 -277 0 -292 1 -312 20 -12 11
-25 17 -28 13z"/>
<path d="M4573 1861 c-5 -21 -9 -21 -309 -21 -192 0 -305 -4 -309 -10 -3 -6 1
-17 9 -26 23 -22 24 -568 1 -600 -8 -12 -11 -24 -8 -28 3 -3 144 -6 312 -6
297 0 307 -1 319 -20 22 -36 32 -11 32 85 0 96 -10 121 -32 85 -12 -19 -22
-20 -230 -20 l-218 0 0 75 0 75 140 0 c130 0 140 -1 150 -20 20 -38 30 -10 30
85 0 95 -10 123 -30 85 -10 -19 -20 -20 -150 -20 l-140 0 0 65 0 65 215 0
c184 0 215 -2 215 -15 0 -8 7 -15 15 -15 12 0 15 17 15 94 0 57 -4 97 -11 101
-6 4 -13 -2 -16 -14z"/>
<path d="M7717 1873 c-10 -10 -8 -191 2 -197 4 -3 16 3 26 14 16 17 31 20 122
20 l103 0 0 -249 c0 -208 -2 -251 -15 -261 -28 -23 -4 -30 101 -30 106 0 120
6 89 36 -13 13 -15 56 -15 260 l0 244 109 0 c88 0 110 -3 115 -15 3 -8 12 -15
21 -15 12 0 15 16 15 95 0 88 -1 95 -20 95 -11 0 -20 -7 -20 -15 0 -13 -39
-15 -292 -15 -278 0 -293 1 -313 20 -12 11 -25 17 -28 13z"/>
<path d="M9325 1846 c-75 -18 -117 -42 -168 -93 -83 -82 -121 -204 -98 -310
41 -185 182 -293 381 -293 239 0 404 163 387 384 -12 158 -118 279 -279 316
-57 13 -161 11 -223 -4z m199 -128 c53 -16 121 -84 135 -134 45 -161 -56 -304
-214 -304 -64 0 -117 22 -166 70 -58 56 -76 121 -58 209 9 46 19 64 58 101 68
66 151 86 245 58z"/>
<path d="M2115 1830 c-3 -6 1 -17 9 -26 23 -22 24 -568 1 -600 -8 -12 -11 -24
-8 -28 10 -9 191 -7 197 3 3 4 -3 16 -14 26 -19 17 -20 32 -20 214 l0 196 197
-197 c177 -177 197 -200 186 -217 -6 -10 -9 -22 -6 -25 4 -3 53 -6 110 -6 81
0 103 3 103 14 0 8 -7 16 -15 20 -13 5 -15 47 -15 301 0 254 2 296 15 301 8 4
15 12 15 20 0 11 -21 14 -100 14 -80 0 -100 -3 -100 -14 0 -8 6 -16 13 -18 14
-5 24 -388 10 -388 -16 0 -363 356 -363 373 0 8 5 19 10 22 6 4 8 11 5 16 -8
12 -222 12 -230 -1z"/>
<path d="M4876 1831 c-3 -5 1 -14 9 -21 13 -11 15 -58 15 -305 0 -247 -2 -294
-15 -305 -27 -23 -4 -30 95 -30 99 0 122 7 95 30 -12 10 -15 37 -15 122 l0
109 82 -3 82 -3 78 -104 c72 -95 78 -105 63 -121 -8 -9 -12 -20 -8 -23 10 -10
241 -8 247 2 3 5 -5 16 -18 25 -34 22 -188 214 -181 225 3 5 18 12 33 16 39 8
102 62 118 101 32 77 7 197 -51 242 -56 44 -111 52 -376 52 -136 0 -250 -4
-253 -9z m519 -146 c30 -29 32 -64 6 -96 -19 -23 -25 -24 -180 -27 l-161 -3 0
75 0 76 155 0 c152 0 156 -1 180 -25z"/>
<path d="M5835 1830 c-3 -6 1 -17 9 -26 23 -23 24 -585 1 -604 -8 -7 -12 -16
-9 -21 7 -12 191 -12 198 0 3 4 -3 16 -14 26 -19 17 -20 32 -20 212 0 182 1
192 18 181 9 -7 98 -95 197 -195 159 -163 178 -185 168 -202 -7 -10 -9 -22 -6
-25 4 -3 53 -6 110 -6 81 0 103 3 103 14 0 8 -7 16 -15 20 -13 5 -15 47 -15
301 0 254 2 296 15 301 8 4 15 12 15 20 0 11 -21 14 -100 14 -80 0 -100 -3
-100 -14 0 -8 6 -16 13 -18 14 -5 24 -388 10 -388 -16 0 -363 356 -363 373 0
8 5 19 10 22 6 4 8 11 5 16 -8 12 -222 12 -230 -1z"/>
<path d="M7096 1831 c-3 -5 1 -15 10 -22 10 -8 14 -22 10 -40 -10 -50 -266
-558 -286 -569 -39 -21 -8 -30 101 -30 90 0 109 3 109 15 0 8 -4 15 -10 15
-15 0 -12 43 6 78 l15 32 163 0 163 0 17 -43 c20 -53 20 -63 0 -71 -8 -3 -12
-10 -9 -16 8 -12 242 -14 249 -1 3 5 -5 16 -18 24 -15 10 -74 117 -164 296
-129 256 -151 311 -121 311 5 0 9 7 9 15 0 12 -20 15 -119 15 -66 0 -122 -4
-125 -9z m145 -238 c12 -27 32 -70 45 -97 13 -28 24 -51 24 -53 0 -2 -43 -3
-96 -3 -75 0 -95 3 -92 14 6 27 83 186 90 186 4 0 17 -21 29 -47z"/>
<path d="M8590 1829 c0 -6 7 -17 15 -25 23 -23 22 -575 -1 -598 -27 -28 -6
-36 96 -36 99 0 122 7 95 30 -13 11 -15 58 -15 305 0 247 2 294 15 305 8 7 12
16 9 21 -8 13 -214 11 -214 -2z"/>
<path d="M10075 1830 c-3 -6 1 -17 9 -26 23 -22 24 -568 1 -600 -8 -12 -11
-24 -8 -28 10 -9 191 -7 197 3 3 4 -3 16 -14 26 -19 17 -20 32 -20 214 l0 196
197 -197 c177 -177 197 -200 186 -217 -6 -10 -9 -22 -6 -25 4 -3 53 -6 110 -6
81 0 103 3 103 14 0 8 -7 16 -15 20 -13 5 -15 47 -15 301 0 254 2 296 15 301
8 4 15 12 15 20 0 11 -21 14 -100 14 -80 0 -100 -3 -100 -14 0 -8 6 -16 13
-18 14 -5 24 -388 10 -388 -16 0 -363 356 -363 373 0 8 5 19 10 22 6 4 8 11 5
16 -8 12 -222 12 -230 -1z"/>
<path d="M11336 1831 c-3 -5 1 -14 9 -21 28 -23 31 -16 -141 -367 -69 -140
-122 -237 -134 -243 -39 -21 -8 -30 101 -30 90 0 109 3 109 15 0 8 -4 15 -10
15 -15 0 -12 43 6 78 l15 32 159 0 c172 0 168 1 191 -63 12 -35 12 -40 -4 -48
-10 -6 -15 -14 -12 -20 8 -12 242 -12 249 0 3 5 -5 16 -18 24 -15 10 -72 113
-160 289 -126 253 -152 318 -126 318 6 0 10 7 10 15 0 12 -20 15 -119 15 -66
0 -122 -4 -125 -9z m145 -238 c12 -27 32 -70 45 -97 13 -28 24 -51 24 -53 0
-2 -43 -3 -95 -3 -52 0 -95 4 -95 8 0 5 13 35 28 68 16 32 35 74 43 92 8 17
17 32 21 32 4 0 17 -21 29 -47z"/>
<path d="M12070 1829 c0 -6 7 -17 15 -25 23 -23 22 -575 -1 -598 -8 -9 -12
-20 -9 -26 4 -6 114 -10 301 -10 283 0 294 -1 306 -20 7 -11 18 -20 25 -20 10
0 13 27 13 105 0 78 -3 105 -13 105 -7 0 -18 -9 -25 -20 -12 -19 -23 -20 -217
-20 l-205 0 0 250 c0 214 2 251 15 256 8 4 15 12 15 20 0 11 -23 14 -110 14
-72 0 -110 -4 -110 -11z"/>
<path d="M196 931 c-3 -4 3 -16 14 -26 19 -17 20 -32 20 -400 0 -368 -1 -383
-20 -400 -11 -10 -17 -22 -14 -26 8 -13 539 -11 609 2 167 31 279 137 315 300
8 35 11 97 8 161 -4 91 -9 113 -38 177 -54 116 -134 178 -268 206 -76 16 -617
22 -626 6z m584 -157 c62 -18 103 -57 133 -124 30 -65 30 -226 1 -290 -53
-116 -113 -140 -341 -140 l-153 0 0 285 0 285 153 0 c111 0 168 -4 207 -16z"/>
<path d="M7665 787 c-79 -21 -126 -47 -180 -102 -144 -143 -146 -373 -5 -516
55 -56 107 -84 192 -104 146 -34 268 -12 421 77 26 15 57 28 67 28 11 0 20 5
20 10 0 18 -85 140 -98 140 -7 0 -17 -11 -22 -25 -7 -18 -30 -36 -77 -58 -62
-29 -77 -32 -163 -32 -105 0 -138 11 -198 69 -43 40 -62 86 -62 151 0 68 20
113 68 157 56 51 127 72 219 65 92 -7 198 -52 213 -92 5 -14 15 -25 22 -25 18
0 101 129 94 146 -3 7 -12 11 -19 8 -8 -3 -41 11 -74 30 -106 62 -158 78 -268
82 -61 2 -120 -2 -150 -9z"/>
<path d="M4262 744 c-71 -19 -106 -38 -159 -87 -67 -62 -95 -125 -101 -224 -7
-134 35 -231 133 -305 139 -105 361 -103 508 6 41 30 93 113 112 181 44 151
-35 335 -172 400 -95 45 -220 57 -321 29z m198 -124 c49 -13 109 -66 131 -114
24 -54 24 -148 0 -202 -58 -128 -246 -166 -364 -74 -48 38 -71 96 -72 176 0
61 4 77 30 119 54 87 166 126 275 95z"/>
<path d="M1436 731 c-3 -5 1 -14 9 -21 13 -11 15 -58 15 -305 0 -247 -2 -294
-15 -305 -27 -23 -4 -30 95 -30 99 0 122 7 95 30 -13 11 -15 58 -15 305 0 247
2 294 15 305 27 23 4 30 -95 30 -54 0 -101 -4 -104 -9z"/>
<path d="M2137 733 c-4 -3 2 -16 13 -28 l19 -21 -73 -154 c-134 -282 -196
-405 -216 -422 -38 -32 -24 -38 84 -38 106 0 134 9 101 34 -16 12 -16 15 3 59
l21 47 164 0 164 0 17 -43 c20 -53 20 -63 0 -71 -8 -3 -12 -10 -9 -16 8 -12
242 -14 249 -1 3 5 -5 16 -19 25 -17 11 -70 106 -165 296 -77 154 -140 282
-140 284 0 3 7 12 16 20 8 9 12 20 9 26 -7 11 -227 14 -238 3z m168 -290 c25
-53 43 -98 41 -100 -2 -2 -46 -2 -98 -1 l-95 3 46 98 c25 53 49 97 53 97 4 0
28 -43 53 -97z"/>
<path d="M2896 731 c-3 -5 1 -14 9 -21 13 -11 15 -58 15 -305 0 -247 -2 -294
-15 -305 -8 -7 -12 -16 -9 -21 7 -11 191 -12 198 -1 3 5 -4 16 -15 25 -18 16
-19 31 -19 208 0 200 2 206 41 134 29 -53 75 -138 123 -224 25 -46 46 -86 46
-90 0 -3 9 -17 19 -30 l18 -24 56 94 c30 52 84 145 120 206 35 62 67 110 71
106 3 -3 6 -88 6 -188 0 -150 -3 -185 -15 -195 -27 -23 -5 -30 90 -30 97 0
118 8 91 36 -14 13 -16 55 -16 300 0 269 1 285 19 301 11 9 18 20 15 25 -7 11
-251 10 -259 -1 -3 -6 2 -14 11 -19 9 -5 14 -15 13 -23 -8 -29 -184 -339 -192
-336 -5 1 -24 32 -43 67 -20 36 -54 99 -76 140 -72 132 -69 122 -53 146 8 12
11 24 8 28 -10 10 -251 7 -257 -3z"/>
<path d="M5016 731 c-3 -5 1 -14 9 -21 13 -11 15 -58 15 -305 0 -247 -2 -294
-15 -305 -27 -23 -5 -30 91 -30 96 0 109 6 79 36 -20 21 -23 406 -2 399 6 -3
95 -91 196 -196 160 -165 183 -193 173 -209 -6 -10 -8 -21 -5 -24 10 -10 201
-7 207 3 3 5 -1 14 -9 21 -22 19 -22 591 0 610 27 23 5 30 -91 30 -96 0 -109
-6 -79 -36 12 -13 15 -49 15 -200 0 -101 -4 -184 -8 -184 -13 0 -357 349 -360
366 -2 8 1 21 7 28 6 7 8 16 4 19 -10 10 -221 8 -227 -2z"/>
<path d="M6036 731 c-3 -5 1 -14 9 -21 13 -11 15 -58 15 -303 0 -255 -2 -293
-16 -309 -15 -16 -15 -18 -1 -24 9 -3 123 -4 254 -2 273 5 305 12 380 86 61
60 84 118 90 227 4 74 2 100 -16 149 -37 107 -103 167 -208 192 -66 16 -498
20 -507 5z m485 -144 c64 -34 90 -86 90 -179 0 -116 -35 -174 -120 -199 -40
-11 -271 -9 -271 4 0 4 0 95 0 202 l0 195 128 0 c115 0 133 -2 173 -23z"/>
<path d="M8677 629 c-91 -21 -167 -82 -205 -162 -30 -64 -31 -179 -1 -242 80
-171 325 -228 502 -116 177 113 156 407 -36 495 -77 35 -176 45 -260 25z m184
-122 c123 -65 120 -271 -4 -328 -88 -40 -186 -16 -236 57 -43 62 -39 179 7
232 56 65 153 81 233 39z"/>
<path d="M9340 606 c0 -8 7 -16 15 -20 22 -8 22 -467 0 -486 -27 -22 -5 -30
80 -30 85 0 107 8 80 30 -12 10 -15 41 -15 159 l0 146 92 -161 c51 -89 97
-160 103 -158 6 3 51 72 101 154 49 82 92 150 97 150 4 0 7 -60 7 -133 0 -100
-4 -138 -15 -153 -8 -12 -11 -24 -8 -28 10 -9 181 -7 187 3 3 5 -1 14 -9 21
-13 10 -15 51 -15 245 0 194 2 235 15 245 8 7 12 16 9 21 -6 10 -217 12 -227
2 -4 -3 1 -15 10 -25 17 -19 16 -22 -6 -61 -76 -136 -134 -226 -141 -222 -4 3
-29 42 -55 87 -26 46 -56 98 -66 116 -21 36 -25 77 -9 87 27 17 -11 25 -116
25 -91 0 -114 -3 -114 -14z"/>
<path d="M10300 613 c0 -5 7 -17 15 -27 22 -29 22 -468 0 -486 -27 -22 -5 -30
85 -30 90 0 112 8 85 30 -11 9 -15 35 -15 101 l0 89 119 0 c151 0 214 14 257
57 85 85 42 229 -79 261 -52 13 -467 18 -467 5z m432 -120 c22 -20 23 -51 1
-75 -14 -16 -33 -18 -140 -18 l-123 0 0 55 0 55 122 0 c99 0 125 -3 140 -17z"/>
<path d="M11310 606 c0 -8 5 -18 10 -21 6 -3 10 -14 10 -24 0 -27 -204 -422
-233 -452 -14 -15 -23 -29 -20 -33 9 -8 188 -8 196 1 4 3 0 14 -8 23 -12 13
-13 23 -6 44 l11 26 144 0 144 0 7 -32 c5 -21 4 -33 -4 -36 -6 -2 -11 -10 -11
-18 0 -11 22 -14 110 -14 82 0 110 3 110 13 0 7 -8 17 -19 24 -10 6 -38 47
-61 90 -212 388 -203 369 -175 393 28 23 4 30 -101 30 -84 0 -104 -3 -104 -14z
m139 -237 c17 -33 31 -63 31 -65 0 -2 -31 -4 -70 -4 -38 0 -70 2 -70 5 0 14
65 133 71 130 3 -3 21 -32 38 -66z"/>
<path d="M11960 606 c0 -8 7 -16 15 -20 22 -8 22 -467 0 -486 -27 -22 -5 -30
80 -30 85 0 107 8 80 30 -12 10 -15 42 -15 162 l0 150 88 -80 c238 -220 228
-209 215 -230 -6 -11 -9 -23 -6 -26 10 -9 191 -7 197 3 3 4 -3 16 -14 26 -19
17 -20 32 -20 240 0 208 1 223 20 240 11 10 17 22 14 26 -3 5 -45 9 -95 9 -66
0 -89 -3 -89 -13 0 -7 4 -17 9 -22 10 -10 18 -281 10 -290 -3 -2 -70 58 -149
134 -131 126 -144 141 -133 159 6 11 9 23 6 26 -4 3 -53 6 -110 6 -81 0 -103
-3 -103 -14z"/>
<path d="M12805 611 c-3 -5 8 -20 24 -33 16 -13 50 -51 75 -85 25 -35 66 -90
91 -124 l45 -61 0 -98 c0 -74 -4 -101 -15 -110 -8 -7 -12 -16 -9 -21 7 -12
191 -12 198 0 3 4 -3 16 -14 26 -17 15 -20 31 -20 105 l0 87 62 84 c118 161
138 186 163 199 14 7 25 19 25 27 0 10 -27 13 -119 13 -119 0 -144 -7 -116
-30 8 -7 15 -19 15 -27 0 -24 -79 -133 -93 -127 -6 2 -31 33 -54 68 -41 63
-41 64 -23 81 11 10 17 22 14 26 -7 12 -241 11 -249 0z"/>
</g>
</svg>
